<?xml version="1.0" encoding="UTF-8"?>
<svg id="Layer_2" data-name="Layer 2" xmlns="http://www.w3.org/2000/svg" viewBox="0 0 301.25 300.75">
  <defs>
    <style>
      .cls-1 {
        fill: #fff;
      }
    </style>
  </defs>
  <g id="Layer_5" data-name="Layer 5">
    <g>
      <path d="M300.5,20.01v259.98c0,11.05-8.96,20.01-20.01,20.01H20.5c-11.05,0-20-8.95-20-20V20C.5,8.95,9.45,0,20.5,0h259.99c11.05,0,20.01,8.96,20.01,20.01Z"/>
      <polygon class="cls-1" points="188.62 85.5 189.52 93.5 119 93.5 118.62 93.44 119.98 85.5 120 85.5 188.62 85.5"/>
      <polygon class="cls-1" points="191.92 109.5 192.82 117.5 114 117.5 113.93 117.5 115.33 109.5 191.92 109.5"/>
      <polygon class="cls-1" points="194.26 138.5 195.26 147.5 195 147.5 110 147.5 109.78 147.46 111.29 138.5 194 138.5 194.26 138.5"/>
      <polygon class="cls-1" points="123.32 72.55 85.73 300 85.73 300.5 68.38 300.5 68.38 300 117.5 72.51 118 72.5 123 72.5 123.32 72.55"/>
      <polygon class="cls-1" points="227.94 300 227.94 300.5 211 300.5 210.55 300 186.22 74.5 192.82 74.5 227.94 300"/>
      <polygon class="cls-1" points="197.93 173.5 199.46 187.45 199 187.5 103.27 187.5 105.63 173.5 106 173.5 197.93 173.5"/>
      <polygon class="cls-1" points="204.2 225.5 205.75 239.5 205.5 239.5 95.5 239.5 95.01 239.42 97.37 225.5 97.49 225.5 204.2 225.5"/>
      <rect class="cls-1" x=".25" y="22.5" width="300.75" height="24.01"/>
      <polygon class="cls-1" points="301 44.5 301 217.5 254 217.5 287.49 44.96 288 44.5 301 44.5"/>
      <polygon class="cls-1" points=".25 44.5 .25 217.5 45.99 217.5 46.44 217.41 13 44.75 12.45 44.5 .25 44.5"/>
      <polygon class="cls-1" points="88.7 173.5 78.99 217.5 46 217.5 45.52 217.5 36.94 173.5 37 173.5 88.7 173.5"/>
      <polygon class="cls-1" points="263.59 173.5 254.99 217.5 222.37 217.5 215.37 173.5 263.59 173.5"/>
    </g>
  </g>
</svg>